<?xml version="1.0" encoding="UTF-8"?>
<svg version="1.1" xmlns="http://www.w3.org/2000/svg" width="500" height="500">
<path d="M0 0 C165 0 330 0 500 0 C500 165 500 330 500 500 C335 500 170 500 0 500 C0 335 0 170 0 0 Z " fill="#000000" transform="translate(0,0)"/>
<path d="M0 0 C29.04 0 58.08 0 88 0 C88.12032643 27.08235937 88.12032643 27.08235937 88.14648438 38.59960938 C88.16443893 46.46775355 88.18571104 54.3357933 88.22631836 62.20385742 C88.25884199 68.54509312 88.27683831 74.88621688 88.28463173 81.22752953 C88.29018781 83.65052237 88.30103702 86.07350887 88.31719017 88.49645424 C88.33887111 91.88229382 88.3419708 95.26766697 88.34057617 98.65356445 C88.351362 99.66200912 88.36214783 100.6704538 88.3732605 101.7094574 C88.36913651 102.63072418 88.36501251 103.55199097 88.36076355 104.50117493 C88.36352893 105.30221303 88.36629431 106.10325113 88.36914349 106.92856312 C87.90039129 109.55895109 87.14330643 110.43646631 85 112 C82.20989569 112.28056139 79.64570789 112.37894459 76.85668945 112.34057617 C76.02719788 112.34101425 75.1977063 112.34145233 74.34307861 112.34190369 C71.59957391 112.33981259 68.85667928 112.3164666 66.11328125 112.29296875 C64.21185134 112.28737393 62.3104171 112.2831033 60.40898132 112.28010559 C55.40294467 112.26864782 50.39716889 112.23917258 45.39123535 112.20599365 C40.28364593 112.17531288 35.17601438 112.16160452 30.06835938 112.14648438 C20.04545826 112.11430381 10.02275082 112.06309616 0 112 C0 110.02 0 108.04 0 106 C2.64 106 5.28 106 8 106 C8 103.36 8 100.72 8 98 C5.36 98 2.72 98 0 98 C0 95.36 0 92.72 0 90 C2.64 90 5.28 90 8 90 C8 87.36 8 84.72 8 82 C5.36 82 2.72 82 0 82 C0 79.36 0 76.72 0 74 C2.31 74 4.62 74 7 74 C7 71.69 7 69.38 7 67 C4.36 67 1.72 67 -1 67 C-1 64.03 -1 61.06 -1 58 C1.97 58 4.94 58 8 58 C8 55.69 8 53.38 8 51 C5.36 51 2.72 51 0 51 C0 48.36 0 45.72 0 43 C2.64 43 5.28 43 8 43 C8 40.36 8 37.72 8 35 C5.36 35 2.72 35 0 35 C0 32.36 0 29.72 0 27 C2.31 27 4.62 27 7 27 C7 24.69 7 22.38 7 20 C4.36 20 1.72 20 -1 20 C-1 17.03 -1 14.06 -1 11 C1.97 11 4.94 11 8 11 C8 8.69 8 6.38 8 4 C5.36 4 2.72 4 0 4 C0 2.68 0 1.36 0 0 Z " fill="#37B5FE" transform="translate(202,144)"/>
<path d="M0 0 C3.70145811 0.70633525 5.63530234 2.01947422 7.98640442 5.05930901 C10.01944073 8.95188246 9.6739283 13.12664777 9.61523438 17.42407227 C9.62078339 18.46054901 9.6263324 19.49702576 9.63204956 20.56491089 C9.64383676 23.98254988 9.61958011 27.39886048 9.59375 30.81640625 C9.59203873 33.19481852 9.59210475 35.57323267 9.59387207 37.9516449 C9.59221939 42.93238405 9.57352861 47.91267282 9.54199219 52.89331055 C9.50229375 59.27804121 9.49794989 65.6621826 9.50545502 72.04701328 C9.50852405 76.95665385 9.4964068 81.86616189 9.47932434 86.77577019 C9.47229299 89.13009752 9.46916997 91.48443987 9.47001648 93.83877754 C9.46821925 97.12790216 9.44684339 100.41631985 9.41992188 103.70532227 C9.42285248 104.67844864 9.42578308 105.65157501 9.42880249 106.65419006 C9.35262976 112.6844748 8.49500494 116.08916091 4.5 120.75 C0.71104082 123.90746598 -4.14319548 123.13317473 -8.78588867 123.11352539 C-10.13253853 123.11374443 -10.13253853 123.11374443 -11.50639343 123.1139679 C-14.47694303 123.11327064 -17.44743009 123.10548697 -20.41796875 123.09765625 C-22.47634344 123.09579141 -24.53471858 123.09436782 -26.59309387 123.09336853 C-32.01330794 123.08954859 -37.43349524 123.07972273 -42.85369873 123.06866455 C-48.38358193 123.05843921 -53.91346945 123.0538685 -59.44335938 123.04882812 C-70.29558468 123.03810003 -81.14779011 123.02102984 -92 123 C-92 120.36 -92 117.72 -92 115 C-90.93368851 114.99857498 -89.86737701 114.99714996 -88.76875305 114.99568176 C-78.71897491 114.97901113 -68.66960164 114.93623551 -58.62003803 114.86790943 C-53.4534201 114.83362084 -48.28709844 114.80852653 -43.12036133 114.80444336 C-38.13396144 114.80016445 -33.14823012 114.77173542 -28.1620388 114.72656822 C-26.2598987 114.71358021 -24.35767864 114.70929015 -22.45549965 114.71384621 C-19.79031848 114.718743 -17.12709829 114.69270221 -14.4621582 114.65942383 C-13.2828775 114.67236229 -13.2828775 114.67236229 -12.07977295 114.68556213 C-8.38714747 114.60828404 -6.15264735 114.09607272 -3.0123291 112.11962891 C-0.08681062 107.58432103 -0.29495018 103.7227249 -0.34057617 98.42651367 C-0.33009247 97.36264435 -0.31960876 96.29877502 -0.30880737 95.20266724 C-0.28003627 91.69080516 -0.28635175 88.17992768 -0.29296875 84.66796875 C-0.27985506 82.2312954 -0.26455186 79.79463293 -0.24714661 77.35798645 C-0.20724584 70.94807212 -0.19710281 64.53844184 -0.19311523 58.12841797 C-0.18379349 51.58617508 -0.14638587 45.04409977 -0.11132812 38.50195312 C-0.04670036 25.6679837 -0.01254893 12.83412059 0 0 Z " fill="#FAC23B" transform="translate(294,145)"/>
<path d="M0 0 C3.16961356 1.28133314 4.57820229 2.5200233 6.8125 5.0625 C8.56641131 9.40112271 8.67922905 13.3856722 8 18 C6.00342873 21.85544798 4.60292362 23.59805092 1 26 C-3.77444863 26.7785176 -8.75925964 27.20909195 -13.12109375 24.85546875 C-16.70385559 21.32425744 -17.43493185 17.88413956 -17.6875 12.9375 C-17.4956777 9.01252054 -17.11941662 6.39515218 -14.625 3.3125 C-10.00560222 -0.75696947 -5.97026497 -0.51792519 0 0 Z " fill="#070707" transform="translate(176,290)"/>
<path d="M0 0 C2.56364483 -0.10845031 5.12266279 -0.18749744 7.6875 -0.25 C8.40873047 -0.28351563 9.12996094 -0.31703125 9.87304688 -0.3515625 C13.70303293 -0.42151658 15.60448984 -0.23399292 18.984375 1.765625 C21.10271887 4.11386665 21.66526389 4.90499341 21.5625 8 C21.35169534 10.69026893 20.96569723 12.06533861 19.6875 14.5 C15.35603598 16.91756131 10.85001072 16.30103515 6 16 C6.144375 17.27875 6.28875 18.5575 6.4375 19.875 C6.51871094 20.59429687 6.59992188 21.31359375 6.68359375 22.0546875 C6.91292961 24.07404316 6.91292961 24.07404316 8 26 C5.36 26 2.72 26 0 26 C0.33 25.34 0.66 24.68 1 24 C1.15222973 22.33434251 1.24917215 20.66343504 1.31640625 18.9921875 C1.35830078 18.00605469 1.40019531 17.01992188 1.44335938 16.00390625 C1.48267578 14.97136719 1.52199219 13.93882812 1.5625 12.875 C1.60568359 11.83472656 1.64886719 10.79445313 1.69335938 9.72265625 C1.7996288 7.14857472 1.90166583 4.57439492 2 2 C1.34 2 0.68 2 0 2 C0 1.34 0 0.68 0 0 Z " fill="#FDFDFD" transform="translate(351,290)"/>
<path d="M0 0 C2.56364483 -0.10845031 5.12266279 -0.18749744 7.6875 -0.25 C8.40873047 -0.28351563 9.12996094 -0.31703125 9.87304688 -0.3515625 C13.70303293 -0.42151658 15.60448984 -0.23399292 18.984375 1.765625 C21.10271887 4.11386665 21.66526389 4.90499341 21.5625 8 C21.35169534 10.69026893 20.96569723 12.06533861 19.6875 14.5 C15.35603598 16.91756131 10.85001072 16.30103515 6 16 C6.144375 17.27875 6.28875 18.5575 6.4375 19.875 C6.51871094 20.59429687 6.59992188 21.31359375 6.68359375 22.0546875 C6.91292961 24.07404316 6.91292961 24.07404316 8 26 C5.36 26 2.72 26 0 26 C0.33 25.34 0.66 24.68 1 24 C1.15222973 22.33434251 1.24917215 20.66343504 1.31640625 18.9921875 C1.35830078 18.00605469 1.40019531 17.01992188 1.44335938 16.00390625 C1.48267578 14.97136719 1.52199219 13.93882812 1.5625 12.875 C1.60568359 11.83472656 1.64886719 10.79445313 1.69335938 9.72265625 C1.7996288 7.14857472 1.90166583 4.57439492 2 2 C1.34 2 0.68 2 0 2 C0 1.34 0 0.68 0 0 Z " fill="#FDFDFD" transform="translate(323,290)"/>
<path d="M0 0 C3.16961356 1.28133314 4.57820229 2.5200233 6.8125 5.0625 C8.56641131 9.40112271 8.67922905 13.3856722 8 18 C6.00342873 21.85544798 4.60292362 23.59805092 1 26 C-3.77444863 26.7785176 -8.75925964 27.20909195 -13.12109375 24.85546875 C-16.70385559 21.32425744 -17.43493185 17.88413956 -17.6875 12.9375 C-17.4956777 9.01252054 -17.11941662 6.39515218 -14.625 3.3125 C-10.00560222 -0.75696947 -5.97026497 -0.51792519 0 0 Z M-12 6 C-13.84070199 9.68140398 -13.36784824 13.97269597 -13 18 C-11.61451845 21.02286884 -10.33128575 22.66871425 -8 25 C-4.63288809 25.36599043 -2.65939101 25.37424895 0.3125 23.6875 C3.47407157 20.52592843 3.24837396 16.88158309 3.375 12.625 C3.34018525 8.16373809 3.31558776 6.47789004 0.8125 2.6875 C-1.8379547 0.91161165 -1.8379547 0.91161165 -4.5 0.375 C-8.07484178 1.26871044 -9.64125636 3.24813242 -12 6 Z " fill="#E6E6E6" transform="translate(176,290)"/>
<path d="M0 0 C0.99 0 1.98 0 3 0 C3.26216309 0.71655762 3.52432617 1.43311523 3.79443359 2.17138672 C4.98224475 5.4080539 6.178507 8.64153272 7.375 11.875 C7.7875 13.00292969 8.2 14.13085938 8.625 15.29296875 C9.02460938 16.36933594 9.42421875 17.44570313 9.8359375 18.5546875 C10.20251465 19.54968262 10.5690918 20.54467773 10.94677734 21.56982422 C11.87531649 24.12039096 11.87531649 24.12039096 14 26 C11.03 26 8.06 26 5 26 C5 23.36 5 20.72 5 18 C1.7 18 -1.6 18 -5 18 C-5.66 20.31 -6.32 22.62 -7 25 C-6.34 25.33 -5.68 25.66 -5 26 C-6.98 26 -8.96 26 -11 26 C-10.59136719 25.39800781 -10.18273437 24.79601562 -9.76171875 24.17578125 C-7.27672606 19.69618245 -5.59335116 14.98259471 -3.8125 10.1875 C-3.44447266 9.20845703 -3.07644531 8.22941406 -2.69726562 7.22070312 C-1.79380997 4.81539912 -0.89487855 2.40850534 0 0 Z " fill="#E6E6E6" transform="translate(303,290)"/>
<path d="M0 0 C2.5625 -0.5625 2.5625 -0.5625 6 0 C10.95939136 4.79625349 14.47174346 11.11957244 18 17 C18.33 12.05 18.66 7.1 19 2 C18.34 2 17.68 2 17 2 C17 1.34 17 0.68 17 0 C18.65 0 20.3 0 22 0 C21.67 8.58 21.34 17.16 21 26 C16.9889361 23.99446805 16.12793157 23.19189735 13.765625 19.6484375 C12.90517578 18.37226563 12.90517578 18.37226563 12.02734375 17.0703125 C11.44082031 16.18085938 10.85429687 15.29140625 10.25 14.375 C9.64800781 13.4778125 9.04601562 12.580625 8.42578125 11.65625 C6.94230088 9.4428031 5.46749074 7.22406656 4 5 C3.97104024 8.12498063 3.95321517 11.2499269 3.9375 14.375 C3.92912109 15.26445312 3.92074219 16.15390625 3.91210938 17.0703125 C3.90888672 17.92109375 3.90566406 18.771875 3.90234375 19.6484375 C3.89710693 20.43395996 3.89187012 21.21948242 3.88647461 22.02880859 C3.87426047 24.07772668 3.87426047 24.07772668 5 26 C3.35 26 1.7 26 0 26 C0.33 25.34 0.66 24.68 1 24 C1.15222973 22.33434251 1.24917215 20.66343504 1.31640625 18.9921875 C1.35830078 18.00605469 1.40019531 17.01992188 1.44335938 16.00390625 C1.48267578 14.97136719 1.52199219 13.93882812 1.5625 12.875 C1.60568359 11.83472656 1.64886719 10.79445313 1.69335938 9.72265625 C1.7996288 7.14857472 1.90166583 4.57439492 2 2 C1.34 2 0.68 2 0 2 C0 1.34 0 0.68 0 0 Z " fill="#EFEFEF" transform="translate(128,290)"/>
<path d="M0 0 C6.27 0 12.54 0 19 0 C18.67 1.32 18.34 2.64 18 4 C17.67 3.67 17.34 3.34 17 3 C15.15108054 2.76636119 13.29511969 2.58696365 11.4375 2.4375 C10.42558594 2.35371094 9.41367188 2.26992188 8.37109375 2.18359375 C7.19740234 2.09271484 7.19740234 2.09271484 6 2 C6 5.3 6 8.6 6 12 C8.64 12 11.28 12 14 12 C14 11.34 14 10.68 14 10 C14.66 10 15.32 10 16 10 C16 11.98 16 13.96 16 16 C15.34 16 14.68 16 14 16 C14 15.34 14 14.68 14 14 C11.36 14 8.72 14 6 14 C6 17.63 6 21.26 6 25 C7.77375 24.87625 9.5475 24.7525 11.375 24.625 C12.87160156 24.52058594 12.87160156 24.52058594 14.3984375 24.4140625 C17.15508879 24.23636036 17.15508879 24.23636036 19 22 C19 23.32 19 24.64 19 26 C12.73 26 6.46 26 0 26 C0 17.42 0 8.84 0 0 Z " fill="#ECECEC" transform="translate(219,290)"/>
<path d="M0 0 C2.5625 1.5 2.5625 1.5 4 3 C3.67 4.32 3.34 5.64 3 7 C2.67 6.34 2.34 5.68 2 5 C0.23173046 2.82717431 0.23173046 2.82717431 -1.98046875 2.734375 C-3.98888143 2.74859385 -5.99584122 2.86857975 -8 3 C-8 4.98 -8 6.96 -8 9 C-7.34 9.226875 -6.68 9.45375 -6 9.6875 C1.90971145 13.14799876 1.90971145 13.14799876 5 16 C5.75 19.625 5.75 19.625 5 23 C2.81051259 25.73685926 0.39354401 26.27050052 -2.9375 26.875 C-5.9164598 27.14733028 -7.06135793 26.97519573 -9.9375 25.8125 C-12.16229344 23.85737849 -12.69977741 22.90215168 -13 20 C-11.948125 20.99 -11.948125 20.99 -10.875 22 C-7.53956856 24.32030013 -5.97288453 24.44143161 -2 24 C-1.34 23.67 -0.68 23.34 0 23 C-0.16213924 20.57951707 -0.16213924 20.57951707 -1 18 C-2.94742783 16.43117912 -2.94742783 16.43117912 -5.375 15.375 C-8.4126792 13.90068664 -10.88424239 12.68307432 -13 10 C-13.74883721 4.00930233 -13.74883721 4.00930233 -11.5625 1.0625 C-7.71849526 -0.53135562 -4.10098631 -0.58693015 0 0 Z " fill="#EBEBEB" transform="translate(258,290)"/>
<path d="M0 0 C7.26 0 14.52 0 22 0 C22 1.65 22 3.3 22 5 C21.34 5 20.68 5 20 5 C20 4.01 20 3.02 20 2 C17.69 2 15.38 2 13 2 C13 9.26 13 16.52 13 24 C13.66 24 14.32 24 15 24 C15 24.66 15 25.32 15 26 C12.03 26 9.06 26 6 26 C6.66 25.67 7.32 25.34 8 25 C8 17.41 8 9.82 8 2 C5.69 2 3.38 2 1 2 C0.67 2.66 0.34 3.32 0 4 C0 2.68 0 1.36 0 0 Z " fill="#E3E3E3" transform="translate(191,290)"/>
<path d="M0 0 C3.0625 0.3125 3.0625 0.3125 4.9375 1.4375 C6.59827671 4.20546119 6.45055206 6.14340818 6.0625 9.3125 C4.9375 11.6875 4.9375 11.6875 3.0625 13.3125 C0.0625 13.8125 0.0625 13.8125 -2.9375 13.3125 C-4.875 11.75 -4.875 11.75 -5.9375 9.3125 C-5.48600609 0.58361767 -5.48600609 0.58361767 0 0 Z " fill="#C6992F" transform="translate(265.9375,335.6875)"/>
<path d="M0 0 C6.625 -0.25 6.625 -0.25 10 2 C10.64608076 8.78384798 10.64608076 8.78384798 8.9375 12 C5.97912322 13.52690415 3.26283401 13.18468872 0 13 C0 8.71 0 4.42 0 0 Z " fill="#DFAD35" transform="translate(396,336)"/>
<path d="M0 0 C6.3782235 -0.36103152 6.3782235 -0.36103152 8.9375 1.125 C10.51108304 3.90191125 10.38420899 5.86229327 10 9 C8.9375 11.375 8.9375 11.375 7 13 C3.3125 13.25 3.3125 13.25 0 13 C0 8.71 0 4.42 0 0 Z " fill="#070707" transform="translate(358,292)"/>
<path d="M0 0 C6.3782235 -0.36103152 6.3782235 -0.36103152 8.9375 1.125 C10.51108304 3.90191125 10.38420899 5.86229327 10 9 C8.9375 11.375 8.9375 11.375 7 13 C3.3125 13.25 3.3125 13.25 0 13 C0 8.71 0 4.42 0 0 Z " fill="#070707" transform="translate(330,292)"/>
<path d="M0 0 C2.56364483 -0.10845031 5.12266279 -0.18749744 7.6875 -0.25 C8.40873047 -0.28351563 9.12996094 -0.31703125 9.87304688 -0.3515625 C13.70303293 -0.42151658 15.60448984 -0.23399292 18.984375 1.765625 C21.10271887 4.11386665 21.66526389 4.90499341 21.5625 8 C21.36924243 11.04664883 21.04818877 11.93353274 19.1875 14.5 C17 16 17 16 14 16 C14.33 15.29875 14.66 14.5975 15 13.875 C16.10704461 10.69224674 16.29748557 8.34671266 16 5 C13.23776722 2.23776722 10.79293383 2.42143709 7 2 C7 6.29 7 10.58 7 15 C6.67 15 6.34 15 6 15 C6 10.38 6 5.76 6 1 C4.02 1.33 2.04 1.66 0 2 C0 1.34 0 0.68 0 0 Z " fill="#D3D3D3" transform="translate(351,290)"/>
<path d="M0 0 C2.56364483 -0.10845031 5.12266279 -0.18749744 7.6875 -0.25 C8.40873047 -0.28351563 9.12996094 -0.31703125 9.87304688 -0.3515625 C13.70303293 -0.42151658 15.60448984 -0.23399292 18.984375 1.765625 C21.10271887 4.11386665 21.66526389 4.90499341 21.5625 8 C21.36924243 11.04664883 21.04818877 11.93353274 19.1875 14.5 C17 16 17 16 14 16 C14.33 15.29875 14.66 14.5975 15 13.875 C16.10704461 10.69224674 16.29748557 8.34671266 16 5 C13.23776722 2.23776722 10.79293383 2.42143709 7 2 C7 6.29 7 10.58 7 15 C6.67 15 6.34 15 6 15 C6 10.38 6 5.76 6 1 C4.02 1.33 2.04 1.66 0 2 C0 1.34 0 0.68 0 0 Z " fill="#D3D3D3" transform="translate(323,290)"/>
<path d="M0 0 C0.93130333 3.10195648 1.02404919 5.7130692 0.875 8.9375 C0.81912759 13.14655465 1.27996703 15.62715911 4 19 C5.49743119 20.49743119 6.98824239 20.33202693 9.0625 20.5625 C10.361875 20.706875 11.66125 20.85125 13 21 C13 21.33 13 21.66 13 22 C3.86213675 23.02435122 3.86213675 23.02435122 -0.06640625 20.86328125 C-3.72458704 17.22273024 -4.42121582 13.83842919 -4.625 8.75 C-4.6015625 5.671875 -4.6015625 5.671875 -4 3 C-1.9609375 1.140625 -1.9609375 1.140625 0 0 Z " fill="#F0F0F0" transform="translate(163,294)"/>
<path d="M0 0 C0.99 0 1.98 0 3 0 C3.66 1.98 4.32 3.96 5 6 C7.10232344 3.1315587 7.10232344 3.1315587 8 0 C8.99 0 9.98 0 11 0 C12.10228696 4.40914783 12.07654536 8.48382401 12 13 C11.34 13 10.68 13 10 13 C9.67 10.36 9.34 7.72 9 5 C8.01 7.31 7.02 9.62 6 12 C5.34 12 4.68 12 4 12 C3.34 10.02 2.68 8.04 2 6 C1.67 8.31 1.34 10.62 1 13 C0.34 13 -0.32 13 -1 13 C-1.02696365 11.20841511 -1.04637917 9.41671527 -1.0625 7.625 C-1.07410156 6.62726563 -1.08570313 5.62953125 -1.09765625 4.6015625 C-1 2 -1 2 0 0 Z " fill="#D0A131" transform="translate(336,336)"/>
<path d="M0 0 C3.375 -0.125 3.375 -0.125 7 0 C7.66 0.66 8.32 1.32 9 2 C8.77614278 4.01471498 8.54581684 6.03145256 8.19140625 8.02734375 C7.84464352 10.2112135 7.84464352 10.2112135 9 13 C8.01 12.67 7.02 12.34 6 12 C5.3125 9.9375 5.3125 9.9375 5 8 C4.01 8 3.02 8 2 8 C2 9.65 2 11.3 2 13 C1.34 13 0.68 13 0 13 C0 8.71 0 4.42 0 0 Z " fill="#C2962E" transform="translate(192,336)"/>
<path d="M0 0 C1.98 0 3.96 0 6 0 C6.66 0.66 7.32 1.32 8 2 C7.835 3.11375 7.67 4.2275 7.5 5.375 C7.00318436 8.97691339 7.01916027 10.0870004 9 13 C6 13 6 13 3.8125 11 C3.214375 10.34 2.61625 9.68 2 9 C2 10.32 2 11.64 2 13 C1.34 13 0.68 13 0 13 C0 8.71 0 4.42 0 0 Z " fill="#E9B537" transform="translate(304,336)"/>
<path d="M0 0 C4 1 4 1 5.265625 2.62890625 C6.17708333 4.41927083 7.08854167 6.20963542 8 8 C8.33 5.36 8.66 2.72 9 0 C9.66 0 10.32 0 11 0 C11 4.29 11 8.58 11 13 C7 12 7 12 5.734375 10.37109375 C4.82291667 8.58072917 3.91145833 6.79036458 3 5 C2.67 7.64 2.34 10.28 2 13 C1.34 13 0.68 13 0 13 C0 8.71 0 4.42 0 0 Z " fill="#DAA934" transform="translate(373,336)"/>
<path d="M0 0 C0.99 0.33 1.98 0.66 3 1 C3.94921875 2.9609375 3.94921875 2.9609375 4.6875 5.375 C5.06455078 6.56222656 5.06455078 6.56222656 5.44921875 7.7734375 C6 10 6 10 6 13 C5.34 13 4.68 13 4 13 C4 12.01 4 11.02 4 10 C2.02 10 0.04 10 -2 10 C-2 10.99 -2 11.98 -2 13 C-2.99 12.67 -3.98 12.34 -5 12 C-4.35758106 10.186287 -3.71096881 8.37405876 -3.0625 6.5625 C-2.70285156 5.55316406 -2.34320313 4.54382813 -1.97265625 3.50390625 C-1 1 -1 1 0 0 Z " fill="#E7B337" transform="translate(117,336)"/>
<path d="M0 0 C1.98 0 3.96 0 6 0 C8 2 8 2 8.3125 4.5 C8.1578125 5.7375 8.1578125 5.7375 8 7 C5 9 5 9 2 9 C2 10.32 2 11.64 2 13 C1.34 13 0.68 13 0 13 C0 8.71 0 4.42 0 0 Z " fill="#DFAD35" transform="translate(134,336)"/>
<path d="M0 0 C0.66 0 1.32 0 2 0 C2.33 3.3 2.66 6.6 3 10 C4.32 10 5.64 10 7 10 C7.33 6.7 7.66 3.4 8 0 C8.66 0 9.32 0 10 0 C10.05391993 1.79133978 10.09275571 3.58313899 10.125 5.375 C10.14820313 6.37273437 10.17140625 7.37046875 10.1953125 8.3984375 C10 11 10 11 8 13 C5 13.25 5 13.25 2 13 C0 11 0 11 -0.1953125 8.3984375 C-0.17210937 7.40070313 -0.14890625 6.40296875 -0.125 5.375 C-0.10695313 4.37210937 -0.08890625 3.36921875 -0.0703125 2.3359375 C-0.04710937 1.56507813 -0.02390625 0.79421875 0 0 Z " fill="#E4B136" transform="translate(282,336)"/>
<path d="M0 0 C0.66 0 1.32 0 2 0 C2.33 3.3 2.66 6.6 3 10 C4.32 10 5.64 10 7 10 C7.33 6.7 7.66 3.4 8 0 C8.66 0 9.32 0 10 0 C10.05416188 1.60379341 10.09286638 3.20811406 10.125 4.8125 C10.14820313 5.70582031 10.17140625 6.59914063 10.1953125 7.51953125 C10 10 10 10 8 13 C5 13.3125 5 13.3125 2 13 C0 11 0 11 -0.1953125 8.3984375 C-0.17210937 7.40070313 -0.14890625 6.40296875 -0.125 5.375 C-0.10695312 4.37210937 -0.08890625 3.36921875 -0.0703125 2.3359375 C-0.04710937 1.56507813 -0.02390625 0.79421875 0 0 Z " fill="#DAA934" transform="translate(171,336)"/>
<path d="M0 0 C2.64 0 5.28 0 8 0 C8 0.66 8 1.32 8 2 C6.02 2 4.04 2 2 2 C2 3.32 2 4.64 2 6 C3.65 6 5.3 6 7 6 C7 6.33 7 6.66 7 7 C5.35 7 3.7 7 2 7 C2 8.32 2 9.64 2 11 C3.98 11 5.96 11 8 11 C8 11.66 8 12.32 8 13 C5.36 13 2.72 13 0 13 C0 8.71 0 4.42 0 0 Z " fill="#DAA934" transform="translate(212,336)"/>
<path d="M0 0 C3.63 0 7.26 0 11 0 C11 1.65 11 3.3 11 5 C7.37 5 3.74 5 0 5 C0 3.35 0 1.7 0 0 Z " fill="#C1962E" transform="translate(197,212)"/>
<path d="M0 0 C1.66611905 -0.042721 3.33382885 -0.04063832 5 0 C6 1 6 1 6.125 4.5 C6 8 6 8 5 9 C3.33382885 9.04063832 1.66611905 9.042721 0 9 C0 6.03 0 3.06 0 0 Z " fill="#070501" transform="translate(398,338)"/>
<path d="M0 0 C1.65 0 3.3 0 5 0 C4.67 8.58 4.34 17.16 4 26 C3.67 26 3.34 26 3 26 C3 23.69 3 21.38 3 19 C2.34 18.67 1.68 18.34 1 18 C1.33 12.72 1.66 7.44 2 2 C1.34 2 0.68 2 0 2 C0 1.34 0 0.68 0 0 Z " fill="#B0B0B0" transform="translate(145,290)"/>
<path d="M0 0 C1.67542976 0.28604898 3.34385343 0.61781233 5 1 C5 3.64 5 6.28 5 9 C3.33388095 9.042721 1.66617115 9.04063832 0 9 C-1 8 -1 8 -1.125 4.5 C-1 1 -1 1 0 0 Z " fill="#030200" transform="translate(264,338)"/>
<path d="M0 0 C0.33 0.66 0.66 1.32 1 2 C-0.98 2.33 -2.96 2.66 -5 3 C-5 5.31 -5 7.62 -5 10 C-3.02 10 -1.04 10 1 10 C1 10.99 1 11.98 1 13 C-2.375 13.125 -2.375 13.125 -6 13 C-8 11 -8 11 -8.3125 7.0625 C-8.23719217 4.46908648 -8.15247863 3.25680612 -6.8125 1 C-4.44004321 -0.30894168 -2.6664882 -0.21620175 0 0 Z " fill="#DAA934" transform="translate(102,336)"/>
<path d="M0 0 C3.34905453 3.34905453 3.89470285 5.49378854 5 10 C2.36 10 -0.28 10 -3 10 C-2.01 6.7 -1.02 3.4 0 0 Z " fill="#191919" transform="translate(302,297)"/>
<path d="M0 0 C7.26 0 14.52 0 22 0 C22 1.65 22 3.3 22 5 C21.34 5 20.68 5 20 5 C20 4.01 20 3.02 20 2 C13.73 2 7.46 2 1 2 C0.67 2.66 0.34 3.32 0 4 C0 2.68 0 1.36 0 0 Z " fill="#B2B2B2" transform="translate(191,290)"/>
<path d="M0 0 C0.99 0.33 1.98 0.66 3 1 C3.33 1.99 3.66 2.98 4 4 C4.66 4.33 5.32 4.66 6 5 C6.66 3.35 7.32 1.7 8 0 C8.66 0 9.32 0 10 0 C9.566875 0.99 9.566875 0.99 9.125 2 C7.76562701 5.62499465 6.89375361 9.23346693 6 13 C5.34 13 4.68 13 4 13 C3.51891725 11.58398286 3.04021859 10.16715563 2.5625 8.75 C2.29566406 7.96109375 2.02882812 7.1721875 1.75390625 6.359375 C1.08045292 4.25178012 0.50849405 2.15246027 0 0 Z " fill="#D5A533" transform="translate(241,336)"/>
<path d="M0 0 C3.63 0 7.26 0 11 0 C11 1.32 11 2.64 11 4 C7.37 4 3.74 4 0 4 C0 2.68 0 1.36 0 0 Z " fill="#E2B036" transform="translate(197,244)"/>
<path d="M0 0 C3.63 0 7.26 0 11 0 C11 1.32 11 2.64 11 4 C7.37 4 3.74 4 0 4 C0 2.68 0 1.36 0 0 Z " fill="#F1BB39" transform="translate(197,228)"/>
<path d="M0 0 C3.63 0 7.26 0 11 0 C11 1.32 11 2.64 11 4 C7.37 4 3.74 4 0 4 C0 2.68 0 1.36 0 0 Z " fill="#E2B036" transform="translate(197,197)"/>
<path d="M0 0 C3.63 0 7.26 0 11 0 C11 1.32 11 2.64 11 4 C7.37 4 3.74 4 0 4 C0 2.68 0 1.36 0 0 Z " fill="#F1BB39" transform="translate(197,181)"/>
<path d="M0 0 C3.63 0 7.26 0 11 0 C11 1.32 11 2.64 11 4 C7.37 4 3.74 4 0 4 C0 2.68 0 1.36 0 0 Z " fill="#D3A432" transform="translate(197,165)"/>
<path d="M0 0 C3.63 0 7.26 0 11 0 C11 1.32 11 2.64 11 4 C7.37 4 3.74 4 0 4 C0 2.68 0 1.36 0 0 Z " fill="#E2B036" transform="translate(197,150)"/>
<path d="M0 0 C2.97 0 5.94 0 9 0 C9 0.66 9 1.32 9 2 C7.68 2 6.36 2 5 2 C5 5.63 5 9.26 5 13 C4.34 13 3.68 13 3 13 C3 9.37 3 5.74 3 2 C2.01 2 1.02 2 0 2 C0 1.34 0 0.68 0 0 Z " fill="#DAA934" transform="translate(152,336)"/>
<path d="M0 0 C0.99 0 1.98 0 3 0 C3 4.29 3 8.58 3 13 C2.01 13 1.02 13 0 13 C0 8.71 0 4.42 0 0 Z " fill="#AB8529" transform="translate(359,336)"/>
<path d="M0 0 C6.27 0 12.54 0 19 0 C18.67 1.32 18.34 2.64 18 4 C17.67 3.67 17.34 3.34 17 3 C14.14122091 2.76298761 11.30116703 2.57780818 8.4375 2.4375 C7.63119141 2.39431641 6.82488281 2.35113281 5.99414062 2.30664062 C3.99631195 2.20024738 1.9981793 2.09959112 0 2 C0 1.34 0 0.68 0 0 Z " fill="#B8B8B8" transform="translate(219,290)"/>
<path d="M0 0 C0.99 0.33 1.98 0.66 3 1 C4.125 5.75 4.125 5.75 3 8 C1.68 8 0.36 8 -1 8 C-1.625 5.6875 -1.625 5.6875 -2 3 C-1.34 2.01 -0.68 1.02 0 0 Z " fill="#937223" transform="translate(117,336)"/>
<path d="M0 0 C1.32 0.33 2.64 0.66 4 1 C4.33 1.99 4.66 2.98 5 4 C4.01 4.495 4.01 4.495 3 5 C2.53476937 6.89533342 2.53476937 6.89533342 2.375 9.0625 C2.25125 10.361875 2.1275 11.66125 2 13 C1.34 13 0.68 13 0 13 C0 8.71 0 4.42 0 0 Z " fill="#C1962E" transform="translate(373,336)"/>
<path d="M0 0 C0.66 0 1.32 0 2 0 C2.03738281 0.69867188 2.07476562 1.39734375 2.11328125 2.1171875 C2.17902344 3.02726562 2.24476563 3.93734375 2.3125 4.875 C2.37050781 5.77992188 2.42851562 6.68484375 2.48828125 7.6171875 C2.7882039 10.36221601 2.7882039 10.36221601 6 12 C4.125 12.625 4.125 12.625 2 13 C0 11 0 11 -0.1953125 8.3984375 C-0.17210937 7.40070313 -0.14890625 6.40296875 -0.125 5.375 C-0.10695312 4.37210937 -0.08890625 3.36921875 -0.0703125 2.3359375 C-0.04710937 1.56507813 -0.02390625 0.79421875 0 0 Z " fill="#E3B036" transform="translate(171,336)"/>
<path d="M0 0 C0.33 0 0.66 0 1 0 C1.03758423 0.93851807 1.03758423 0.93851807 1.07592773 1.89599609 C1.19175273 4.72254619 1.31453985 7.54875169 1.4375 10.375 C1.47681641 11.35984375 1.51613281 12.3446875 1.55664062 13.359375 C1.59853516 14.30039062 1.64042969 15.24140625 1.68359375 16.2109375 C1.72025146 17.08024902 1.75690918 17.94956055 1.79467773 18.84521484 C1.87401544 21.0483262 1.87401544 21.0483262 3 23 C1.35 23 -0.3 23 -2 23 C-1.67 22.34 -1.34 21.68 -1 21 C-0.84824451 19.40737934 -0.75099675 17.80935144 -0.68359375 16.2109375 C-0.64169922 15.26992188 -0.59980469 14.32890625 -0.55664062 13.359375 C-0.51732422 12.37453125 -0.47800781 11.3896875 -0.4375 10.375 C-0.39431641 9.38242187 -0.35113281 8.38984375 -0.30664062 7.3671875 C-0.20038931 4.91160162 -0.09835036 2.45591297 0 0 Z " fill="#F9F9F9" transform="translate(130,293)"/>
<path d="M0 0 C0.66 0 1.32 0 2 0 C2 1.98 2 3.96 2 6 C1.34 6 0.68 6 0 6 C0 5.34 0 4.68 0 4 C-2.64 4 -5.28 4 -8 4 C-8 3.34 -8 2.68 -8 2 C-5.36 2 -2.72 2 0 2 C0 1.34 0 0.68 0 0 Z " fill="#B2B2B2" transform="translate(233,300)"/>
<path d="M0 0 C0.33 0 0.66 0 1 0 C1 1.98 1 3.96 1 6 C2.32 6 3.64 6 5 6 C8 9.21428571 8 9.21428571 8 12 C7.01 11.67 6.02 11.34 5 11 C4.3125 8.9375 4.3125 8.9375 4 7 C3.01 7 2.02 7 1 7 C1 8.65 1 10.3 1 12 C0.67 12 0.34 12 0 12 C0 8.04 0 4.08 0 0 Z " fill="#F2BC3A" transform="translate(193,337)"/>
<path d="M0 0 C0.66 0 1.32 0 2 0 C2.2475 0.928125 2.495 1.85625 2.75 2.8125 C4.06454245 6.16458325 4.97963384 7.1877803 8 9 C5.6875 9.25 5.6875 9.25 3 9 C0.59688549 6.76261752 0.03658575 5.53659096 -0.1875 2.25 C-0.125625 1.5075 -0.06375 0.765 0 0 Z " fill="#D2A332" transform="translate(260,340)"/>
<path d="M0 0 C0.53625 0.268125 1.0725 0.53625 1.625 0.8125 C-2.25064767 4.42389896 -2.25064767 4.42389896 -4.375 5.8125 C-6.75 5.625 -6.75 5.625 -8.375 4.8125 C-2.95961538 -0.23365385 -2.95961538 -0.23365385 0 0 Z " fill="#DADADA" transform="translate(168.375,290.1875)"/>
<path d="M0 0 C0.8125 2.625 0.8125 2.625 1 5 C0.484375 4.360625 -0.03125 3.72125 -0.5625 3.0625 C-3.65935623 0.44208319 -6.02067623 0.30610183 -10 0 C-10 -0.33 -10 -0.66 -10 -1 C-6.02064869 -2.13695752 -3.58974296 -2.19373181 0 0 Z " fill="#B4B4B4" transform="translate(261,292)"/>
<path d="M0 0 C1.32 1.65 2.64 3.3 4 5 C3.01 5.33 2.02 5.66 1 6 C-0.32 4.68 -1.64 3.36 -3 2 C-3.33 3.32 -3.66 4.64 -4 6 C-4 4.35 -4 2.7 -4 1 C-2.68 0.67 -1.36 0.34 0 0 Z " fill="#CB9E30" transform="translate(309,343)"/>
<path d="M0 0 C1.32 0 2.64 0 4 0 C3.67 1.65 3.34 3.3 3 5 C2.01 5 1.02 5 0 5 C0 3.35 0 1.7 0 0 Z " fill="#221A08" transform="translate(194,338)"/>
<path d="M0 0 C1.32 0.33 2.64 0.66 4 1 C3.67 2.32 3.34 3.64 3 5 C2.01 5 1.02 5 0 5 C0 3.35 0 1.7 0 0 Z " fill="#171205" transform="translate(306,338)"/>
<path d="M0 0 C1.32 0.33 2.64 0.66 4 1 C3.67 2.32 3.34 3.64 3 5 C2.01 5 1.02 5 0 5 C0 3.35 0 1.7 0 0 Z " fill="#0B0902" transform="translate(136,338)"/>
<path d="M0 0 C0.33 0.99 0.66 1.98 1 3 C2.65 3 4.3 3 6 3 C6 3.33 6 3.66 6 4 C4.35 4 2.7 4 1 4 C1 4.99 1 5.98 1 7 C0.01 6.67 -0.98 6.34 -2 6 C-1.34 4.02 -0.68 2.04 0 0 Z " fill="#C5992F" transform="translate(114,342)"/>
</svg>
